HIERARCHY
ROOT root
{
	OFFSET 0.000000 0.000000 0.000000
	CHANNELS 6 Xposition Yposition Zposition Zrotation Yrotation Xrotation
	JOINT lhip
	{
		OFFSET 0.058581 -0.082280 -0.017664
		CHANNELS 3 Zrotation Yrotation Xrotation
		JOINT lknee
		{
			OFFSET 0.043451 -0.386469 0.008037
			CHANNELS 3 Zrotation Yrotation Xrotation
			JOINT lankle
			{
				OFFSET -0.014790 -0.426874 -0.037428
				CHANNELS 3 Zrotation Yrotation Xrotation
				JOINT ltoe
				{
					OFFSET 0.041054 -0.060286 0.122042
					CHANNELS 3 Zrotation Yrotation Xrotation
					End Site
					{
						OFFSET 0.000000 0.000000 0.000000
					}
				}
			}
		}
	}
	JOINT rhip
	{
		OFFSET -0.060310 -0.090513 -0.013543
		CHANNELS 3 Zrotation Yrotation Xrotation
		JOINT rknee
		{
			OFFSET -0.043257 -0.383688 -0.004843
			CHANNELS 3 Zrotation Yrotation Xrotation
			JOINT rankle
			{
				OFFSET 0.019056 -0.420046 -0.034562
				CHANNELS 3 Zrotation Yrotation Xrotation
				JOINT rtoe
				{
					OFFSET -0.034840 -0.062106 0.130323
					CHANNELS 3 Zrotation Yrotation Xrotation
					End Site
					{
						OFFSET 0.000000 0.000000 0.000000
					}
				}
			}
		}
	}
	JOINT lowerback
	{
		OFFSET 0.004439 0.124404 -0.038385
		CHANNELS 3 Zrotation Yrotation Xrotation
		JOINT upperback
		{
			OFFSET 0.004488 0.137956 0.026820
			CHANNELS 3 Zrotation Yrotation Xrotation
			JOINT chest
			{
				OFFSET -0.002265 0.056032 0.002855
				CHANNELS 3 Zrotation Yrotation Xrotation
				JOINT lowerneck
				{
					OFFSET -0.013390 0.211636 -0.033468
					CHANNELS 3 Zrotation Yrotation Xrotation
					JOINT upperneck
					{
						OFFSET 0.010113 0.088937 0.050410
						CHANNELS 3 Zrotation Yrotation Xrotation
						End Site
						{
							OFFSET 0.000000 0.000000 0.000000
						}
					}
				}
				JOINT lclavicle
				{
					OFFSET 0.071702 0.114000 -0.018898
					CHANNELS 3 Zrotation Yrotation Xrotation
					JOINT lshoulder
					{
						OFFSET 0.122921 0.045205 -0.019046
						CHANNELS 3 Zrotation Yrotation Xrotation
						JOINT lelbow
						{
							OFFSET 0.255332 -0.015649 -0.022946
							CHANNELS 3 Zrotation Yrotation Xrotation
							JOINT lwrist
							{
								OFFSET 0.265709 0.012698 -0.007375
								CHANNELS 3 Zrotation Yrotation Xrotation
								End Site
								{
									OFFSET 0.000000 0.000000 0.000000
								}
							}
						}
					}
				}
				JOINT rclavicle
				{
					OFFSET -0.082954 0.112472 -0.023707
					CHANNELS 3 Zrotation Yrotation Xrotation
					JOINT rshoulder
					{
						OFFSET -0.113228 0.046853 -0.008472
						CHANNELS 3 Zrotation Yrotation Xrotation
						JOINT relbow
						{
							OFFSET -0.260127 -0.014369 -0.031269
							CHANNELS 3 Zrotation Yrotation Xrotation
							JOINT rwrist
							{
								OFFSET -0.269108 0.006794 -0.006027
								CHANNELS 3 Zrotation Yrotation Xrotation
								End Site
								{
									OFFSET 0.000000 0.000000 0.000000
								}
							}
						}
					}
				}
			}
		}
	}
}
MOTION
Frames: 14
Frame Time: 0.033333
2.342944 0.713924 0.991761 -78.155752 -1.198154 83.835386 -3.316214 -3.141804 3.118505 -0.409878 -12.723026 3.764498 1.585513 8.282519 -10.046127 0.000000 -0.000000 0.000000 1.877209 -4.979336 4.402122 -4.023070 -6.425212 5.194573 -0.116818 -13.663530 -13.635776 0.000000 -0.000000 0.000000 -1.291448 5.586378 7.075045 -1.955917 -0.894549 6.557424 0.513480 1.577357 -3.997099 -0.017930 28.102463 -5.304699 1.276036 26.482425 -0.671680 -27.179224 -9.018089 0.598250 -52.240268 -6.001953 12.704339 0.476856 -21.418398 9.964294 -8.289051 -3.415099 5.619222 26.631543 11.201990 7.845342 56.321687 2.822026 17.989691 -4.308343 23.946432 8.228517 5.303893 4.013908 6.341699 
2.342884 0.714373 0.991732 -78.212177 -1.281379 83.915031 -3.318941 -3.120565 3.031356 -0.492817 -12.744036 3.719168 1.545612 8.382378 -9.923890 0.000000 -0.000000 0.000000 1.838074 -4.768191 4.276176 -4.038237 -6.446214 5.253306 -0.076320 -13.936166 -13.670125 0.000000 -0.000000 0.000000 -1.384817 5.700557 6.940139 -1.799655 -0.868343 6.550262 0.473885 1.480730 -3.871483 -0.269089 28.222437 -4.934532 0.992076 26.375325 -1.419695 -27.257720 -8.827898 0.392346 -52.012883 -6.010033 12.806084 0.023961 -21.672161 9.522534 -8.118476 -2.840659 5.895497 26.605935 10.978573 7.612092 56.196755 2.842176 17.882455 -3.933605 24.007346 8.361496 5.290818 3.956510 6.859324 
2.342914 0.714846 0.991741 -78.219400 -1.322387 83.897715 -3.346735 -3.087425 3.155850 -0.380599 -12.807625 3.473217 1.614011 8.499262 -9.884569 0.000000 -0.000000 0.000000 1.769087 -4.765749 4.315718 -3.944427 -6.295554 5.156865 -0.071428 -13.915223 -13.589027 0.000000 -0.000000 0.000000 -1.283128 5.734875 7.052803 -1.829393 -0.816777 6.451242 0.414449 1.353886 -3.833822 -0.273812 28.117023 -4.880635 0.953477 26.498039 -1.615402 -27.332135 -8.745952 0.262697 -51.894876 -5.967602 12.829015 -0.171376 -21.921592 9.411954 -8.226384 -2.564737 5.572414 26.354075 10.567149 7.286129 56.389891 2.891810 17.899021 -3.594322 24.224188 8.739933 5.448526 3.676935 7.083432 
2.342915 0.715472 0.991761 -78.228985 -1.330245 83.987196 -3.259793 -2.955866 3.109752 -0.358929 -12.852488 3.346113 1.492602 8.515657 -9.833665 0.000000 -0.000000 0.000000 1.737603 -4.779410 4.156137 -3.905744 -6.328228 5.250435 -0.025860 -13.953437 -13.601044 0.000000 -0.000000 0.000000 -1.072960 5.620397 7.234781 -1.942822 -0.748510 6.007041 0.292792 1.300257 -3.708859 -0.230879 28.203865 -4.710040 0.929917 26.631871 -1.705686 -27.408031 -8.494622 0.085592 -51.711120 -5.788095 13.201707 -0.237436 -22.188894 10.258943 -7.306323 -3.256134 5.600637 25.963849 10.013620 6.931168 56.836068 2.927100 18.058714 -3.047513 24.439084 9.581488 4.754300 3.710877 7.094459 
2.342961 0.715881 0.991659 -78.223091 -1.377396 84.003303 -3.306703 -2.912172 3.072804 -0.313943 -13.001262 3.373691 1.517285 8.597687 -9.898441 0.000000 -0.000000 0.000000 1.706802 -4.818669 4.080015 -3.935988 -6.230494 5.320941 -0.140378 -13.941330 -13.461679 0.000000 -0.000000 0.000000 -1.010808 5.622129 7.195204 -1.930383 -0.756280 6.237707 0.189120 1.240558 -3.841787 -0.180378 28.148787 -4.737039 0.829225 26.793894 -1.577161 -27.332232 -8.497402 -0.071495 -51.797686 -5.668797 13.725135 -0.501756 -22.608064 10.909828 -6.367283 -2.819328 6.138023 25.705603 9.711791 6.723204 57.075270 3.070934 18.145699 -2.742599 24.594636 9.826755 4.468104 3.517981 7.225091 
2.342645 0.716265 0.991455 -78.289089 -1.378404 84.022469 -3.263942 -2.899981 3.005933 -0.333173 -12.961822 3.491905 1.590820 8.646692 -9.978148 0.000000 -0.000000 0.000000 1.722844 -4.788602 4.059140 -3.900075 -6.111873 5.266309 -0.123642 -13.925217 -13.342235 0.000000 -0.000000 0.000000 -0.787221 5.614448 7.440823 -2.035852 -0.720255 5.815789 0.081992 1.150326 -3.750330 -0.168924 28.060401 -4.664400 0.876786 26.964083 -1.509576 -27.353164 -8.379986 -0.165539 -51.742227 -5.526698 13.962900 -0.567593 -22.845333 10.881078 -6.427124 -2.744671 5.618096 25.281533 9.263908 6.394595 57.574433 3.093156 18.149315 -2.679611 24.999396 9.449891 4.943236 3.434596 5.910042 
2.342107 0.716748 0.991386 -78.468676 -1.470481 84.015508 -3.380363 -2.871707 3.194510 -0.158532 -12.897096 3.210361 1.577971 8.804463 -9.957047 0.000000 -0.000000 0.000000 1.656032 -4.756731 4.061417 -3.921245 -6.051342 5.260148 -0.087982 -13.924608 -13.272611 0.000000 -0.000000 0.000000 -0.895689 5.640453 7.377695 -1.993511 -0.595081 5.881545 0.085991 1.127814 -3.748816 0.005770 28.000732 -4.581123 0.750912 26.949808 -1.631229 -27.524189 -8.189577 -0.499879 -51.591597 -5.562307 13.868063 -0.965254 -22.777371 10.853449 -6.372044 -2.819146 6.101100 25.208241 8.926583 6.209689 57.642002 3.000332 18.538903 -1.980667 24.755101 11.354696 4.187794 3.597724 8.572406 
2.341695 0.717235 0.990908 -78.598807 -1.512436 84.002928 -3.327514 -2.890348 3.223546 -0.252287 -12.804682 3.246842 1.608411 8.785477 -9.914828 0.000000 -0.000000 0.000000 1.689579 -4.681560 4.085241 -3.952049 -5.919571 5.219045 -0.122944 -13.899275 -13.224757 0.000000 -0.000000 0.000000 -0.942939 5.696457 7.404960 -2.016474 -0.520687 5.853642 0.147410 1.061253 -3.684525 -0.025778 28.102729 -4.720559 0.743511 27.040552 -1.587287 -27.315831 -8.123019 -0.343948 -51.778426 -5.749204 13.596672 -0.879198 -23.126038 10.062294 -7.779980 -2.591218 4.616104 24.825867 8.867323 6.144205 58.171766 3.351886 18.319736 -2.674350 25.127491 9.523714 5.495101 2.727689 5.817619 
2.341518 0.717749 0.990578 -78.648471 -1.517902 83.968247 -3.348917 -2.894072 3.298669 -0.222144 -12.815400 3.225970 1.658622 8.873460 -9.962126 0.000000 -0.000000 0.000000 1.755693 -4.706506 4.150891 -3.994666 -5.867467 5.127788 -0.200500 -13.893095 -13.078959 0.000000 -0.000000 0.000000 -0.879537 5.724825 7.587054 -2.041064 -0.489097 5.718752 0.142066 1.056689 -3.707773 -0.074896 27.958950 -4.766808 0.772266 27.168206 -1.506615 -27.517796 -8.238387 -0.261335 -51.649665 -5.792539 13.627438 -0.938873 -23.115445 10.076661 -7.765840 -2.459674 4.492181 24.744916 8.892628 6.083696 58.316245 3.216313 18.377160 -2.722799 25.277340 9.575641 5.631770 2.618371 5.642252 
2.342097 0.718336 0.990421 -78.904327 -1.597508 84.020274 -3.443743 -2.847226 3.234132 -0.209135 -12.787370 3.262979 1.681285 9.007754 -9.987600 0.000000 -0.000000 0.000000 1.773152 -4.504398 3.950992 -4.120006 -5.883110 5.309336 -0.308809 -13.797800 -13.103270 0.000000 -0.000000 0.000000 -0.790926 5.711461 7.927384 -2.107371 -0.362315 5.569639 0.030865 1.103174 -3.896397 -0.284296 28.013462 -5.199633 0.941005 27.188862 -1.278895 -27.680645 -8.114174 -0.553877 -51.611191 -5.813602 13.503410 -0.996265 -22.859679 10.184752 -7.254875 -2.895865 5.395066 24.983196 8.891668 6.110071 58.044968 2.890359 18.793153 -2.246939 25.080465 11.693544 4.412943 3.764977 8.918825 
2.342022 0.718798 0.990496 -78.999605 -1.558810 84.046513 -3.367821 -2.740227 3.130541 -0.224705 -12.737981 3.455467 1.761950 9.004475 -10.162505 0.000000 -0.000000 0.000000 1.870877 -4.467818 3.927866 -4.160438 -5.894415 5.334466 -0.290556 -13.767961 -13.143767 0.000000 -0.000000 0.000000 -0.603841 5.627463 8.129072 -2.223285 -0.415285 5.194964 -0.028017 1.189751 -3.862028 -0.272202 28.032465 -4.977206 0.917026 27.319235 -1.592488 -27.751253 -8.294793 -0.377284 -51.601998 -5.660393 13.622934 -0.705314 -22.761074 10.053778 -7.345050 -2.784585 5.012481 24.898379 9.004647 6.158930 58.273955 2.878515 18.741253 -2.448418 25.158038 11.202978 4.822296 3.535914 7.721214 
2.341446 0.719284 0.990052 -79.032132 -1.631563 84.100343 -3.439898 -2.690899 3.227006 -0.136034 -12.817291 3.245386 1.612029 9.012865 -10.086236 0.000000 -0.000000 0.000000 1.844210 -4.413979 3.934707 -4.185850 -5.921196 5.257971 -0.266684 -13.857242 -13.181389 0.000000 -0.000000 0.000000 -0.674354 5.587267 7.956689 -2.241078 -0.406581 5.119061 -0.035019 1.208431 -3.675492 -0.270236 28.153597 -5.027059 0.959342 27.369724 -1.585424 -27.694392 -8.328405 -0.340786 -51.718099 -5.706387 13.643795 -0.539511 -22.449427 10.257078 -7.455376 -2.923308 5.135102 24.884363 9.037465 6.199226 58.362639 2.983706 18.757610 -2.481572 25.054713 11.316749 4.929974 3.610802 7.683125 
2.341022 0.719532 0.989862 -79.075606 -1.675278 84.001421 -3.408096 -2.641975 3.358761 -0.276506 -12.798851 3.308095 1.807691 9.078807 -10.221859 0.000000 -0.000000 0.000000 1.787256 -4.413886 4.138246 -4.152679 -5.855305 5.141327 -0.307428 -13.830764 -13.075791 0.000000 -0.000000 0.000000 -0.614057 5.568553 8.013380 -2.296725 -0.408519 5.285801 -0.093153 1.259445 -3.794185 -0.140010 27.943360 -5.108867 0.966496 27.387601 -1.283995 -27.800346 -8.300082 -0.345470 -51.530661 -5.725865 13.610255 -0.456186 -22.441899 10.330195 -7.385401 -2.902662 5.182920 24.797837 8.974006 6.295997 58.444798 3.013026 18.838324 -2.442947 25.293711 11.444873 5.108296 3.243242 7.420695 
2.340696 0.719509 0.989951 -79.052034 -1.708157 83.949651 -3.477973 -2.656095 3.427550 -0.198699 -12.864370 3.316885 1.726471 9.095825 -10.202959 0.000000 -0.000000 0.000000 1.764067 -4.304927 4.224832 -4.140440 -5.826349 5.145768 -0.374560 -13.833105 -12.998615 0.000000 -0.000000 0.000000 -0.633754 5.583224 8.115593 -2.285217 -0.398194 5.113297 -0.052177 1.259820 -3.701575 -0.229928 27.821642 -5.042082 0.949695 27.384302 -1.298464 -27.771681 -8.382050 -0.162900 -51.492357 -5.703204 13.597969 -0.400843 -22.558734 10.265164 -7.625726 -2.904093 4.929609 24.825831 9.071329 6.306837 58.447102 2.986195 18.691134 -2.837232 25.377226 10.778638 5.055453 3.332058 6.803072 
